<svg width="40" height="40" viewBox="0 0 40 40" fill="none" xmlns="http://www.w3.org/2000/svg">
<circle cx="20" cy="20" r="20" fill="#1A3562"/>
<path d="M28 21.2476H21.75V27.4976C21.75 27.8291 21.6183 28.147 21.3839 28.3814C21.1495 28.6159 20.8315 28.7476 20.5 28.7476C20.1685 28.7476 19.8505 28.6159 19.6161 28.3814C19.3817 28.147 19.25 27.8291 19.25 27.4976V21.2476H13C12.6685 21.2476 12.3505 21.1159 12.1161 20.8814C11.8817 20.647 11.75 20.3291 11.75 19.9976C11.75 19.666 11.8817 19.3481 12.1161 19.1137C12.3505 18.8793 12.6685 18.7476 13 18.7476H19.25V12.4976C19.25 12.166 19.3817 11.8481 19.6161 11.6137C19.8505 11.3793 20.1685 11.2476 20.5 11.2476C20.8315 11.2476 21.1495 11.3793 21.3839 11.6137C21.6183 11.8481 21.75 12.166 21.75 12.4976V18.7476H28C28.3315 18.7476 28.6495 18.8793 28.8839 19.1137C29.1183 19.3481 29.25 19.666 29.25 19.9976C29.25 20.3291 29.1183 20.647 28.8839 20.8814C28.6495 21.1159 28.3315 21.2476 28 21.2476Z" fill="white"/>
</svg>
