<svg width="31" height="30" viewBox="0 0 31 30" fill="none" xmlns="http://www.w3.org/2000/svg">
<path d="M23 16.2476H16.75V22.4976C16.75 22.8291 16.6183 23.147 16.3839 23.3814C16.1495 23.6159 15.8315 23.7476 15.5 23.7476C15.1685 23.7476 14.8505 23.6159 14.6161 23.3814C14.3817 23.147 14.25 22.8291 14.25 22.4976V16.2476H8C7.66848 16.2476 7.35054 16.1159 7.11612 15.8814C6.8817 15.647 6.75 15.3291 6.75 14.9976C6.75 14.666 6.8817 14.3481 7.11612 14.1137C7.35054 13.8793 7.66848 13.7476 8 13.7476H14.25V7.49756C14.25 7.16604 14.3817 6.8481 14.6161 6.61367C14.8505 6.37925 15.1685 6.24756 15.5 6.24756C15.8315 6.24756 16.1495 6.37925 16.3839 6.61367C16.6183 6.8481 16.75 7.16604 16.75 7.49756V13.7476H23C23.3315 13.7476 23.6495 13.8793 23.8839 14.1137C24.1183 14.3481 24.25 14.666 24.25 14.9976C24.25 15.3291 24.1183 15.647 23.8839 15.8814C23.6495 16.1159 23.3315 16.2476 23 16.2476Z" fill="white"/>
</svg>
