<svg width="32" height="32" viewBox="0 0 32 32" fill="#ffffff" xmlns="http://www.w3.org/2000/svg">
<path d="M15.9998 29.3333C23.3638 29.3333 29.3332 23.364 29.3332 16C29.3332 8.636 23.3638 2.66666 15.9998 2.66666C8.63584 2.66666 2.6665 8.636 2.6665 16C2.6665 23.364 8.63584 29.3333 15.9998 29.3333Z" fill="white"/>
<path d="M21.3735 15.2933L17.3735 11.2933C17.1853 11.1074 16.9314 11.0031 16.6668 11.0031C16.4023 11.0031 16.1483 11.1074 15.9602 11.2933C15.5735 11.68 15.5735 12.32 15.9602 12.7067L18.2535 15H11.3335C10.7868 15 10.3335 15.4533 10.3335 16C10.3335 16.5467 10.7868 17 11.3335 17H18.2535L15.9602 19.2933C15.5735 19.68 15.5735 20.32 15.9602 20.7067C16.1602 20.9067 16.4135 21 16.6668 21C16.9202 21 17.1735 20.9067 17.3735 20.7067L21.3735 16.7067C21.7602 16.32 21.7602 15.68 21.3735 15.2933Z" fill="black"/>
</svg>
