<svg width="559" height="71" viewBox="0 0 559 71" fill="none" xmlns="http://www.w3.org/2000/svg">
<path d="M524.499 34.4999H490.001C490.001 15.4484 505.449 0.00012207 524.499 0.00012207V34.4999Z" fill="#0F9D58"/>
<path d="M524.499 68.9996H490.001C490.001 49.9481 505.449 34.4999 524.499 34.4999V68.9996Z" fill="#41454A"/>
<path d="M558.999 34.4999H524.501C524.501 15.4484 539.948 0.00012207 558.999 0.00012207V34.4999Z" fill="#EA4335"/>
<path d="M558.999 68.9996H524.501C524.501 49.9481 539.948 34.4999 558.999 34.4999V68.9996Z" fill="#4285F4"/>
<path d="M384.499 34.4999H350.001C350.001 15.4484 365.449 0.00012207 384.499 0.00012207V34.4999Z" fill="#0F9D58"/>
<path d="M384.499 68.9996H350.001C350.001 49.9481 365.449 34.4999 384.499 34.4999V68.9996Z" fill="#41454A"/>
<path d="M418.999 34.4999H384.501C384.501 15.4484 399.948 0.00012207 418.999 0.00012207V34.4999Z" fill="#EA4335"/>
<path d="M418.999 68.9996H384.501C384.501 49.9481 399.948 34.4999 418.999 34.4999V68.9996Z" fill="#4285F4"/>
<g clip-path="url(#clip0_0_1)">
<path d="M70.0011 65.994H140.01L105.006 4.01514L70.0011 65.994Z" fill="#7678ED"/>
</g>
<path fill-rule="evenodd" clip-rule="evenodd" d="M69.9977 0.00012207H34.9994L0.00107574 70.0001H34.9994L69.9977 0.00012207Z" fill="#FBBC04"/>
<g clip-path="url(#clip1_0_1)">
<path d="M175.045 70.0188C194.377 70.0188 210.049 54.3467 210.049 35.0143C210.049 15.6819 194.377 0.0098877 175.045 0.0098877C155.712 0.0098877 140.04 15.6819 140.04 35.0143C140.04 54.3467 155.712 70.0188 175.045 70.0188Z" fill="#F18701"/>
</g>
<g clip-path="url(#clip2_0_1)">
<path d="M210.052 70.0187L280.061 70.0187V0.00978851L210.052 0.00978851V70.0187ZM260.647 19.4233C264.251 23.03 266.493 27.7746 266.991 32.8488C267.488 37.923 266.212 43.0128 263.378 47.2512C260.544 51.4896 256.328 54.6144 251.449 56.0931C246.569 57.5718 241.328 57.3131 236.618 55.361C231.908 53.4089 228.02 49.8841 225.618 45.3872C223.215 40.8904 222.446 35.6995 223.441 30.699C224.436 25.6985 227.134 21.1978 231.076 17.9635C235.017 14.7292 239.958 12.9615 245.056 12.9614C247.953 12.9567 250.822 13.5252 253.498 14.6342C256.173 15.7432 258.603 17.3709 260.647 19.4233Z" fill="#F7B801"/>
</g>
<g clip-path="url(#clip3_0_1)">
<path d="M350.069 35.0142C350.069 15.6818 334.397 0.00978851 315.064 0.00978851C295.732 0.00978851 280.06 15.6818 280.06 35.0142C280.06 54.3467 295.732 70.0187 315.064 70.0187C334.397 70.0187 350.069 54.3467 350.069 35.0142Z" fill="#F18701"/>
</g>
<g clip-path="url(#clip4_0_1)">
<path d="M490.088 35.0142C490.088 15.6818 474.416 0.00978851 455.084 0.00978851C435.751 0.00978851 420.079 15.6818 420.079 35.0142C420.079 54.3467 435.751 70.0187 455.084 70.0187C474.416 70.0187 490.088 54.3467 490.088 35.0142Z" fill="#F18701"/>
</g>
<defs>
<clipPath id="clip0_0_1">
<rect width="70.0089" height="70.0089" fill="white" transform="translate(70.0011 0.00012207)"/>
</clipPath>
<clipPath id="clip1_0_1">
<rect width="70.0089" height="70.0089" fill="white" transform="translate(140.04 0.0098877)"/>
</clipPath>
<clipPath id="clip2_0_1">
<rect width="70.0089" height="70.0089" fill="white" transform="matrix(0 -1 1 0 210.052 70.0187)"/>
</clipPath>
<clipPath id="clip3_0_1">
<rect width="70.0089" height="70.0089" fill="white" transform="matrix(0 -1 1 0 280.06 70.0187)"/>
</clipPath>
<clipPath id="clip4_0_1">
<rect width="70.0089" height="70.0089" fill="white" transform="matrix(0 -1 1 0 420.079 70.0187)"/>
</clipPath>
</defs>
</svg>
