<?xml version="1.0" encoding="UTF-8"?>
<svg xmlns="http://www.w3.org/2000/svg" xmlns:xlink="http://www.w3.org/1999/xlink" width="920px" height="51px" viewBox="0 0 919 51" version="1.1">
<defs>
<clipPath id="clip1">
  <path d="M 115.082031 2 L 230.179688 2 L 230.179688 47.710938 L 115.082031 47.710938 Z M 115.082031 2 "/>
</clipPath>
<clipPath id="clip2">
  <path d="M 230.226562 0.0078125 L 345.324219 0.0078125 L 345.324219 50.292969 L 230.226562 50.292969 Z M 230.226562 0.0078125 "/>
</clipPath>
<clipPath id="clip3">
  <path d="M 345.324219 0.0078125 L 460.425781 0.0078125 L 460.425781 50.292969 L 345.324219 50.292969 Z M 345.324219 0.0078125 "/>
</clipPath>
<clipPath id="clip4">
  <path d="M 460.417969 0.0078125 L 575.519531 0.0078125 L 575.519531 50.292969 L 460.417969 50.292969 Z M 460.417969 0.0078125 "/>
</clipPath>
<clipPath id="clip5">
  <path d="M 690.613281 0.0078125 L 805.710938 0.0078125 L 805.710938 50.292969 L 690.613281 50.292969 Z M 690.613281 0.0078125 "/>
</clipPath>
</defs>
<g id="surface1">
<path style=" stroke:none;fill-rule:nonzero;fill:rgb(5.882353%,61.568627%,34.509804%);fill-opacity:1;" d="M 862.28125 24.78125 L 805.5625 24.78125 C 805.5625 11.097656 830.960938 0 862.28125 0 Z M 862.28125 24.78125 "/>
<path style=" stroke:none;fill-rule:nonzero;fill:rgb(25.490196%,27.058824%,29.019608%);fill-opacity:1;" d="M 862.28125 49.558594 L 805.5625 49.558594 C 805.5625 35.878906 830.960938 24.78125 862.28125 24.78125 Z M 862.28125 49.558594 "/>
<path style=" stroke:none;fill-rule:nonzero;fill:rgb(91.764706%,26.27451%,20.784314%);fill-opacity:1;" d="M 919 24.78125 L 862.28125 24.78125 C 862.28125 11.097656 887.679688 0 919 0 Z M 919 24.78125 "/>
<path style=" stroke:none;fill-rule:nonzero;fill:rgb(25.882353%,52.156863%,95.686275%);fill-opacity:1;" d="M 919 49.558594 L 862.28125 49.558594 C 862.28125 35.878906 887.679688 24.78125 919 24.78125 Z M 919 49.558594 "/>
<path style=" stroke:none;fill-rule:nonzero;fill:rgb(5.882353%,61.568627%,34.509804%);fill-opacity:1;" d="M 632.121094 24.78125 L 575.402344 24.78125 C 575.402344 11.097656 600.800781 0 632.121094 0 Z M 632.121094 24.78125 "/>
<path style=" stroke:none;fill-rule:nonzero;fill:rgb(25.490196%,27.058824%,29.019608%);fill-opacity:1;" d="M 632.121094 49.558594 L 575.402344 49.558594 C 575.402344 35.878906 600.800781 24.78125 632.121094 24.78125 Z M 632.121094 49.558594 "/>
<path style=" stroke:none;fill-rule:nonzero;fill:rgb(91.764706%,26.27451%,20.784314%);fill-opacity:1;" d="M 688.839844 24.78125 L 632.121094 24.78125 C 632.121094 11.097656 657.519531 0 688.839844 0 Z M 688.839844 24.78125 "/>
<path style=" stroke:none;fill-rule:nonzero;fill:rgb(25.882353%,52.156863%,95.686275%);fill-opacity:1;" d="M 688.839844 49.558594 L 632.121094 49.558594 C 632.121094 35.878906 657.519531 24.78125 688.839844 24.78125 Z M 688.839844 49.558594 "/>
<g clip-path="url(#clip1)" clip-rule="nonzero">
<path style=" stroke:none;fill-rule:nonzero;fill:rgb(46.27451%,47.058824%,92.941176%);fill-opacity:1;" d="M 115.082031 47.402344 L 230.179688 47.402344 L 172.632812 2.886719 Z M 115.082031 47.402344 "/>
</g>
<path style=" stroke:none;fill-rule:evenodd;fill:rgb(98.431373%,73.72549%,1.568627%);fill-opacity:1;" d="M 115.074219 0 L 57.539062 0 L 0 50.28125 L 57.539062 50.28125 Z M 115.074219 0 "/>
<g clip-path="url(#clip2)" clip-rule="nonzero">
<path style=" stroke:none;fill-rule:nonzero;fill:rgb(94.509804%,52.941176%,0.392157%);fill-opacity:1;" d="M 287.777344 50.292969 C 319.558594 50.292969 345.324219 39.039062 345.324219 25.152344 C 345.324219 11.265625 319.558594 0.0078125 287.777344 0.0078125 C 255.988281 0.0078125 230.226562 11.265625 230.226562 25.152344 C 230.226562 39.039062 255.988281 50.292969 287.777344 50.292969 Z M 287.777344 50.292969 "/>
</g>
<g clip-path="url(#clip3)" clip-rule="nonzero">
<path style=" stroke:none;fill-rule:nonzero;fill:rgb(96.862745%,72.156863%,0.392157%);fill-opacity:1;" d="M 345.324219 50.292969 L 460.425781 50.292969 L 460.425781 0.0078125 L 345.324219 0.0078125 Z M 428.507812 13.953125 C 434.429688 16.542969 438.113281 19.949219 438.9375 23.597656 C 439.753906 27.242188 437.652344 30.898438 432.996094 33.9375 C 428.335938 36.984375 421.40625 39.234375 413.382812 40.292969 C 405.363281 41.355469 396.746094 41.167969 389 39.765625 C 381.253906 38.367188 374.867188 35.832031 370.917969 32.601562 C 366.96875 29.375 365.703125 25.640625 367.339844 22.050781 C 368.976562 18.457031 373.40625 15.222656 379.886719 12.902344 C 386.367188 10.578125 394.492188 9.3125 402.871094 9.3125 C 407.636719 9.304688 412.351562 9.714844 416.75 10.511719 C 421.148438 11.308594 425.144531 12.480469 428.507812 13.953125 Z M 428.507812 13.953125 "/>
</g>
<g clip-path="url(#clip4)" clip-rule="nonzero">
<path style=" stroke:none;fill-rule:nonzero;fill:rgb(94.509804%,52.941176%,0.392157%);fill-opacity:1;" d="M 575.519531 25.152344 C 575.519531 11.265625 549.753906 0.0078125 517.964844 0.0078125 C 486.183594 0.0078125 460.417969 11.265625 460.417969 25.152344 C 460.417969 39.039062 486.183594 50.292969 517.964844 50.292969 C 549.753906 50.292969 575.519531 39.039062 575.519531 25.152344 Z M 575.519531 25.152344 "/>
</g>
<g clip-path="url(#clip5)" clip-rule="nonzero">
<path style=" stroke:none;fill-rule:nonzero;fill:rgb(94.509804%,52.941176%,0.392157%);fill-opacity:1;" d="M 805.710938 25.152344 C 805.710938 11.265625 779.941406 0.0078125 748.164062 0.0078125 C 716.375 0.0078125 690.613281 11.265625 690.613281 25.152344 C 690.613281 39.039062 716.375 50.292969 748.164062 50.292969 C 779.941406 50.292969 805.710938 39.039062 805.710938 25.152344 Z M 805.710938 25.152344 "/>
</g>
</g>
</svg>
